<svg xmlns="http://www.w3.org/2000/svg" viewBox="0 0 272.75 29.68"><defs><style>.cls-1{fill:#fff;}</style></defs><title>lettering</title><g id="Layer_2" data-name="Layer 2"><g id="Layer_1-2" data-name="Layer 1"><path class="cls-1" d="M266.4,6.7a8,8,0,0,1,3.37.65,6,6,0,0,1,2.31,1.83,1.37,1.37,0,0,1,.23.67.9.9,0,0,1-.47.79.92.92,0,0,1-.55.15,1.38,1.38,0,0,1-1-.44,4.94,4.94,0,0,0-3.92-1.64,4.49,4.49,0,0,0-2.57.66,2,2,0,0,0-.06,3.33,8.41,8.41,0,0,0,3.22,1,9.09,9.09,0,0,1,4.47,1.71,3.76,3.76,0,0,1,1.35,2.94,3.82,3.82,0,0,1-.81,2.4,5.21,5.21,0,0,1-2.23,1.64,8.76,8.76,0,0,1-3.25.58,10,10,0,0,1-3.48-.61,6.84,6.84,0,0,1-2.69-1.73A1.09,1.09,0,0,1,260,20a1.12,1.12,0,0,1,.47-.88,1.23,1.23,0,0,1,.73-.26,1.07,1.07,0,0,1,.85.41,4.54,4.54,0,0,0,1.85,1.26,7.24,7.24,0,0,0,2.56.43,5.42,5.42,0,0,0,3.07-.7,2.22,2.22,0,0,0,1.05-1.84,2.06,2.06,0,0,0-1-1.75,8.19,8.19,0,0,0-3.24-1.06A9.13,9.13,0,0,1,262,14a3.5,3.5,0,0,1-1.42-2.79,3.81,3.81,0,0,1,1.66-3.31A7,7,0,0,1,266.4,6.7m-18,2a5.84,5.84,0,0,0-3,.79,5.67,5.67,0,0,0-2.14,2.18,6.41,6.41,0,0,0-.77,3.14A6.38,6.38,0,0,0,243.2,18a5.65,5.65,0,0,0,2.14,2.17,6.22,6.22,0,0,0,6.07,0,5.62,5.62,0,0,0,2.1-2.17,6.38,6.38,0,0,0,.76-3.12,6.4,6.4,0,0,0-.76-3.14,5.64,5.64,0,0,0-2.1-2.18A5.88,5.88,0,0,0,248.36,8.74Zm0-2a8.27,8.27,0,0,1,4.16,1,7.77,7.77,0,0,1,2.91,2.92,8.3,8.3,0,0,1,1.06,4.18A8.33,8.33,0,0,1,255.44,19a7.54,7.54,0,0,1-2.91,2.91,8.79,8.79,0,0,1-8.33,0A7.54,7.54,0,0,1,241.29,19a8.33,8.33,0,0,1-1-4.17,8.4,8.4,0,0,1,1-4.18,7.49,7.49,0,0,1,2.91-2.92A8.3,8.3,0,0,1,248.36,6.7Zm-19.5,0a7.86,7.86,0,0,1,3.73.87,6.38,6.38,0,0,1,2.59,2.56,8.18,8.18,0,0,1,.93,4v7.6A1.09,1.09,0,0,1,235,22.83a1.1,1.1,0,0,1-.82-.32,1.09,1.09,0,0,1-.32-.79v-7.6a5.2,5.2,0,0,0-1.44-4,5.31,5.31,0,0,0-3.79-1.36,5.9,5.9,0,0,0-2.59.56,4.59,4.59,0,0,0-1.83,1.53,3.82,3.82,0,0,0-.67,2.18v8.65a1,1,0,0,1-1.11,1.11,1.17,1.17,0,0,1-.82-.3,1.1,1.1,0,0,1-.32-.81V8a1.1,1.1,0,0,1,1.14-1.14,1.1,1.1,0,0,1,.81.32,1.17,1.17,0,0,1,.3.82V9a6.85,6.85,0,0,1,2.34-1.7A7.22,7.22,0,0,1,228.86,6.67ZM208.78,20.93a5.81,5.81,0,0,0,3-.79A5.67,5.67,0,0,0,213.91,18a6.28,6.28,0,0,0,.77-3.12,6.21,6.21,0,0,0-.77-3.11,5.79,5.79,0,0,0-5.13-3,5.83,5.83,0,0,0-3,.81,5.68,5.68,0,0,0-2.13,2.19,6.22,6.22,0,0,0-.78,3.11,6.28,6.28,0,0,0,.78,3.12,5.62,5.62,0,0,0,2.13,2.17A5.91,5.91,0,0,0,208.78,20.93Zm0-14.23a8.12,8.12,0,0,1,4.13,1.06,7.73,7.73,0,0,1,2.93,2.94,8.25,8.25,0,0,1,1.07,4.15v6.87a1.11,1.11,0,0,1-1.14,1.11,1.13,1.13,0,0,1-.82-.3,1.06,1.06,0,0,1-.32-.81V20A7.36,7.36,0,0,1,212,22.18a7.61,7.61,0,0,1-3.48.8,7.7,7.7,0,0,1-6.85-4,8.37,8.37,0,0,1-1-4.14,8.25,8.25,0,0,1,1.07-4.15,7.71,7.71,0,0,1,2.92-2.94A8.18,8.18,0,0,1,208.78,6.7ZM189,20.93a5.84,5.84,0,0,0,3-.79A5.65,5.65,0,0,0,194.12,18a6.38,6.38,0,0,0,.77-3.12,6.32,6.32,0,0,0-.77-3.11A5.7,5.7,0,0,0,192,9.55a5.88,5.88,0,0,0-8.16,2.19,6.32,6.32,0,0,0-.77,3.11,6.29,6.29,0,0,0,0,.73.33.33,0,0,1,0,.15A5.83,5.83,0,0,0,185,19.47,5.66,5.66,0,0,0,189,20.93ZM189,6.7a8.14,8.14,0,0,1,4.13,1.06A7.8,7.8,0,0,1,196,10.7a8.24,8.24,0,0,1,1.06,4.15,8.37,8.37,0,0,1-1,4.14,7.73,7.73,0,0,1-6.86,4,7.61,7.61,0,0,1-3.48-.8,7.33,7.33,0,0,1-2.6-2.21v8.56A1.11,1.11,0,0,1,182,29.68a1.07,1.07,0,0,1-.81-.33,1.13,1.13,0,0,1-.3-.82V22a.91.91,0,0,1,0-.27V14.85a8.24,8.24,0,0,1,1.06-4.15,7.8,7.8,0,0,1,2.93-2.94A8.18,8.18,0,0,1,189,6.7ZM162,6.7a7.93,7.93,0,0,1,3.36.65,5.85,5.85,0,0,1,2.31,1.83,1.28,1.28,0,0,1,.23.67.89.89,0,0,1-.46.79.93.93,0,0,1-.56.15,1.34,1.34,0,0,1-1-.44A5,5,0,0,0,162,8.71a4.47,4.47,0,0,0-2.57.66,1.94,1.94,0,0,0-1,1.65,2,2,0,0,0,.91,1.68,8.35,8.35,0,0,0,3.22,1A9.13,9.13,0,0,1,167,15.42a3.75,3.75,0,0,1,1.34,2.94,3.81,3.81,0,0,1-.8,2.4,5.24,5.24,0,0,1-2.24,1.64,8.66,8.66,0,0,1-3.24.58,10,10,0,0,1-3.48-.61,6.77,6.77,0,0,1-2.69-1.73,1,1,0,0,1-.29-.67,1.11,1.11,0,0,1,.46-.88,1.25,1.25,0,0,1,.73-.26,1,1,0,0,1,.85.41,4.65,4.65,0,0,0,1.86,1.26,7.2,7.2,0,0,0,2.56.43,5.47,5.47,0,0,0,3.07-.7,2.22,2.22,0,0,0,1.05-1.84,2.06,2.06,0,0,0-1-1.75,8.31,8.31,0,0,0-3.25-1.06A9,9,0,0,1,157.66,14a3.48,3.48,0,0,1-1.42-2.79,3.83,3.83,0,0,1,1.65-3.31A7,7,0,0,1,162,6.7Zm-18,2a5.91,5.91,0,0,0-3,.79,5.72,5.72,0,0,0-2.13,2.18,6.3,6.3,0,0,0-.78,3.14,6.28,6.28,0,0,0,.78,3.12A5.69,5.69,0,0,0,141,20.14a6.22,6.22,0,0,0,6.07,0A5.57,5.57,0,0,0,149.14,18a6.49,6.49,0,0,0,.76-3.12,6.51,6.51,0,0,0-.76-3.14A5.6,5.6,0,0,0,147,9.53,5.87,5.87,0,0,0,144,8.74Zm0-2a8.23,8.23,0,0,1,4.15,1,7.63,7.63,0,0,1,2.91,2.92,8.31,8.31,0,0,1,1.07,4.18A8.33,8.33,0,0,1,151.07,19a7.67,7.67,0,0,1-2.91,2.91,8.81,8.81,0,0,1-8.34,0A7.67,7.67,0,0,1,136.91,19a8.33,8.33,0,0,1-1-4.17,8.4,8.4,0,0,1,1-4.18,7.63,7.63,0,0,1,2.91-2.92A8.33,8.33,0,0,1,144,6.7ZM123.32,20.93a5.72,5.72,0,0,0,3-.8,5.86,5.86,0,0,0,2.12-2.19,6.28,6.28,0,0,0,.78-3.12,6.41,6.41,0,0,0,0-.73.32.32,0,0,1,0-.14,5.94,5.94,0,0,0-1.92-3.75,5.68,5.68,0,0,0-3.93-1.46,5.91,5.91,0,0,0-3,.79,5.72,5.72,0,0,0-2.13,2.18,6.24,6.24,0,0,0-.78,3.11,6.28,6.28,0,0,0,.78,3.12,5.89,5.89,0,0,0,2.13,2.19A5.82,5.82,0,0,0,123.32,20.93Zm8.1-13.24a.88.88,0,0,1,0,.26v6.87A8.22,8.22,0,0,1,130.38,19a7.78,7.78,0,0,1-2.92,2.94,8.54,8.54,0,0,1-8.28,0A7.78,7.78,0,0,1,116.26,19a8.22,8.22,0,0,1-1.07-4.15,8.31,8.31,0,0,1,1-4.13,7.68,7.68,0,0,1,6.86-4,7.48,7.48,0,0,1,3.47.8,7.26,7.26,0,0,1,2.61,2.21V1.14a1.1,1.1,0,0,1,.32-.82,1.12,1.12,0,0,1,.82-.32,1.06,1.06,0,0,1,.8.32,1.13,1.13,0,0,1,.31.82Zm-28.86,13.1a.91.91,0,0,1,1,1,.91.91,0,0,1-1,1H91.72a.9.9,0,0,1-1-1,1.08,1.08,0,0,1,.21-.73l9.59-12.19H91.6a.9.9,0,0,1-1-1,.9.9,0,0,1,1-1h10.85a.9.9,0,0,1,1,1,1.18,1.18,0,0,1-.24.77l-9.5,12.16ZM84.58.61a1.57,1.57,0,0,1,1.11.44,1.51,1.51,0,0,1,.47,1.14,1.55,1.55,0,0,1-.47,1.14,1.55,1.55,0,0,1-1.14.47,1.49,1.49,0,0,1-1.12-.47A1.55,1.55,0,0,1,83,2.19a1.51,1.51,0,0,1,.47-1.14A1.61,1.61,0,0,1,84.58.61ZM83.44,8a1.1,1.1,0,0,1,1.14-1.14,1.1,1.1,0,0,1,.81.32,1.17,1.17,0,0,1,.3.82V21.69a1.15,1.15,0,0,1-.3.82,1.06,1.06,0,0,1-.81.32,1.1,1.1,0,0,1-.82-.32,1.12,1.12,0,0,1-.32-.82ZM76.8,6.67a4.77,4.77,0,0,1,2,.32,1,1,0,0,1,.72.9.91.91,0,0,1,0,.27.86.86,0,0,1-.37.55,1.33,1.33,0,0,1-.69.15q-.25,0-.9-.06a6,6,0,0,0-.7,0,5.38,5.38,0,0,0-3.59,1.17,3.79,3.79,0,0,0-1.38,3v8.74a1.09,1.09,0,0,1-.3.82,1.29,1.29,0,0,1-1.63,0,1.09,1.09,0,0,1-.3-.82V8a1.12,1.12,0,1,1,2.23,0V9.24A5.73,5.73,0,0,1,74,7.34,6.11,6.11,0,0,1,76.8,6.67ZM64.88,20.58a1,1,0,0,1,.76.32,1.21,1.21,0,0,1,.29.82,1,1,0,0,1-.35.79,1.24,1.24,0,0,1-.88.32h-.61a5.21,5.21,0,0,1-4.7-2.76,6.06,6.06,0,0,1-.68-2.88V9.39h-1.9a1,1,0,0,1-.75-.28,1,1,0,0,1-.28-.69,1,1,0,0,1,.28-.72,1,1,0,0,1,.75-.27h1.9V2.89a1.13,1.13,0,0,1,.3-.81,1.07,1.07,0,0,1,.81-.33A1.11,1.11,0,0,1,61,2.89V7.43h3.3A1,1,0,0,1,65,7.7a1,1,0,0,1,.28.72,1,1,0,0,1-.28.69,1.05,1.05,0,0,1-.75.28H61v7.8a3.42,3.42,0,0,0,.88,2.44,2.89,2.89,0,0,0,2.25.95Zm-19.56.35a5.81,5.81,0,0,0,3-.79A5.67,5.67,0,0,0,50.45,18a6.38,6.38,0,0,0,.77-3.12,6.32,6.32,0,0,0-.77-3.11,5.79,5.79,0,0,0-5.13-3,5.83,5.83,0,0,0-3,.81,5.61,5.61,0,0,0-2.13,2.19,6.22,6.22,0,0,0-.78,3.11A6.28,6.28,0,0,0,40.16,18a5.55,5.55,0,0,0,2.13,2.17A5.91,5.91,0,0,0,45.32,20.93Zm0-14.23a8.12,8.12,0,0,1,4.13,1.06,7.73,7.73,0,0,1,2.93,2.94,8.24,8.24,0,0,1,1.06,4.15v6.87a1,1,0,0,1-.32.79,1.07,1.07,0,0,1-.82.32,1.13,1.13,0,0,1-.81-.3,1.07,1.07,0,0,1-.33-.81V20a7.33,7.33,0,0,1-2.6,2.21,7.61,7.61,0,0,1-3.48.8,7.75,7.75,0,0,1-4-1.07A7.64,7.64,0,0,1,38.23,19a8.37,8.37,0,0,1-1-4.14,8.25,8.25,0,0,1,1.07-4.15,7.71,7.71,0,0,1,2.92-2.94A8.18,8.18,0,0,1,45.32,6.7Zm-17.84,2a5.14,5.14,0,0,0-3.68,1.38A5.87,5.87,0,0,0,22,13.71h10.7a5.74,5.74,0,0,0-1.64-3.62A4.93,4.93,0,0,0,27.48,8.71Zm0-2a7.27,7.27,0,0,1,3.83,1,6.93,6.93,0,0,1,2.59,2.8,8.74,8.74,0,0,1,.92,4.06,1,1,0,0,1-.29.75,1.09,1.09,0,0,1-.76.27H22a5.75,5.75,0,0,0,6,5.38A6.6,6.6,0,0,0,30,20.6a5.29,5.29,0,0,0,1.71-.92,1.26,1.26,0,0,1,.79-.3,1.06,1.06,0,0,1,.64.24,1,1,0,0,1,.38.79.87.87,0,0,1-.32.67,7.83,7.83,0,0,1-2.45,1.36,8.48,8.48,0,0,1-7-.5,7.34,7.34,0,0,1-2.88-2.89,8.49,8.49,0,0,1-1-4.2,8.94,8.94,0,0,1,1-4.22,7.32,7.32,0,0,1,2.72-2.9A7.59,7.59,0,0,1,27.48,6.7ZM8.13,20.93a5.7,5.7,0,0,1-3-.8A5.79,5.79,0,0,1,3,17.94a6.28,6.28,0,0,1-.78-3.12,6.41,6.41,0,0,1,0-.73.32.32,0,0,0,0-.14A5.89,5.89,0,0,1,4.2,10.2,5.68,5.68,0,0,1,8.13,8.74a5.84,5.84,0,0,1,3,.79,5.67,5.67,0,0,1,2.14,2.18,6.34,6.34,0,0,1,.77,3.11,6.38,6.38,0,0,1-.77,3.12,5.84,5.84,0,0,1-2.14,2.19A5.76,5.76,0,0,1,8.13,20.93ZM0,7.69A.88.88,0,0,0,0,8v6.87A8.22,8.22,0,0,0,1.07,19,7.71,7.71,0,0,0,4,21.91,8.19,8.19,0,0,0,8.13,23a8.12,8.12,0,0,0,4.13-1.07A7.73,7.73,0,0,0,15.19,19a8.22,8.22,0,0,0,1.07-4.15,8.31,8.31,0,0,0-1-4.13,7.68,7.68,0,0,0-6.86-4,7.52,7.52,0,0,0-3.48.8,7.23,7.23,0,0,0-2.6,2.21V1.14A1.14,1.14,0,0,0,2,.32,1.14,1.14,0,0,0,1.14,0a1.06,1.06,0,0,0-.8.32A1.13,1.13,0,0,0,0,1.14Z"/></g></g></svg>