<svg xmlns="http://www.w3.org/2000/svg" viewBox="0 0 64.04 73.23"><defs><style>.cls-1{fill:#dc3b21;fill-rule:evenodd;}</style></defs><title>logo</title><g id="Layer_2" data-name="Layer 2"><g id="Layer_1-2" data-name="Layer 1"><path class="cls-1" d="M32,34a7.22,7.22,0,1,1-7.22,7.22A7.22,7.22,0,0,1,32,34M14.59,56.09A22.8,22.8,0,0,1,9.1,41.21V.63A.61.61,0,0,0,8.79.09a.6.6,0,0,0-.63,0A47.42,47.42,0,0,0,.21,5.86.57.57,0,0,0,0,6.32V41.2A32,32,0,1,0,16,13.48a.57.57,0,0,0-.31.54v9.64a.62.62,0,0,0,1,.47,22.92,22.92,0,1,1,8.5,39,.61.61,0,0,1-.44-.59V56.83a.6.6,0,0,1,.28-.52.62.62,0,0,1,.59-.06,16.33,16.33,0,1,0-10-15V55.68a.62.62,0,0,1-.41.59A.64.64,0,0,1,14.59,56.09Z"/></g></g></svg>